<?xml version="1.0" encoding="utf-8"?>
<!-- Svg Vector Icons : http://www.onlinewebfonts.com/icon -->
<!DOCTYPE svg PUBLIC "-//W3C//DTD SVG 1.1//EN" "http://www.w3.org/Graphics/SVG/1.1/DTD/svg11.dtd">
<svg version="1.1" xmlns="http://www.w3.org/2000/svg" xmlns:xlink="http://www.w3.org/1999/xlink" x="0px" y="0px" viewBox="0 0 256 256" enable-background="new 0 0 256 256" xml:space="preserve">
<metadata> Svg Vector Icons : http://www.onlinewebfonts.com/icon </metadata>
<g><g><path fill="#000000" d="M50.7,178.6c26.7,0.5,49.9,4.5,67,11.6c0.3,0.1,0.6,0.2,0.9,0.2c0.5,0,0.9-0.1,1.3-0.4c0.6-0.4,1.1-1.2,1.1-2V60.2c0-1-0.6-1.9-1.5-2.2L51.6,31c-0.7-0.3-1.6-0.2-2.2,0.2c-0.6,0.4-1,1.2-1,2v143C48.4,177.5,49.4,178.6,50.7,178.6z"/><path fill="#000000" d="M245,53.7c-0.6-0.5-1.4-0.6-2.1-0.4l-24,7.2c-1,0.3-1.7,1.2-1.7,2.3v123.4c0,0,0.1,2-1.9,2c-2.3,0-3.9,0-3.9,0c-19.4,0-55.3,2-78.8,15.5l-4.6,2.6l-4.6-2.7c-23.4-13.4-59.4-15.4-78.8-15.4c0,0-4,0-5,0c-0.9,0-0.9-1.1-0.9-1.1V62.8c0-1.1-0.7-2-1.7-2.3l-24-7.2c-0.7-0.2-1.5-0.1-2.1,0.4c-0.6,0.5-1,1.2-1,1.9v149.3c0,0.7,0.3,1.3,0.8,1.8c0.5,0.5,1.2,0.7,1.8,0.6c7.1-0.7,18.3-1.5,30.9-1.5c27.7,0,50,4,64.4,11.7c2.1,1.1,14.4,7.7,20.1,7.7c5.7,0,18-6.6,20.1-7.7c14.4-7.7,36.7-11.7,64.4-11.7c12.6,0,23.8,0.8,30.9,1.5c0.7,0.1,1.3-0.1,1.8-0.6c0.5-0.5,0.8-1.1,0.8-1.8V55.6C246,54.9,245.6,54.2,245,53.7z"/><path fill="#000000" d="M136.1,190c0.4,0.3,0.9,0.4,1.3,0.4c0.3,0,0.6,0,0.9-0.2c17.1-7,40.2-11,67-11.6c1.3,0,2.3-1.1,2.3-2.4v-143c0-0.8-0.4-1.5-1-2c-0.7-0.4-1.5-0.5-2.2-0.2l-67.9,27c-0.9,0.4-1.5,1.2-1.5,2.2V188C135.1,188.8,135.5,189.5,136.1,190z"/></g></g>
</svg>